<svg width="41" height="40" viewBox="0 0 41 40" fill="none" xmlns="http://www.w3.org/2000/svg">
<circle cx="20.5" cy="20" r="20" fill="#EAF7F4"/>
<path d="M18.07 26.82C17.88 26.82 17.69 26.75 17.54 26.6L11.47 20.53C11.18 20.24 11.18 19.76 11.47 19.47L17.54 13.4C17.83 13.11 18.31 13.11 18.6 13.4C18.89 13.69 18.89 14.17 18.6 14.46L13.06 20L18.6 25.54C18.89 25.83 18.89 26.31 18.6 26.6C18.46 26.75 18.26 26.82 18.07 26.82Z" fill="#05C18E"/>
<path d="M29 20.75H12.17C11.76 20.75 11.42 20.41 11.42 20C11.42 19.59 11.76 19.25 12.17 19.25H29C29.41 19.25 29.75 19.59 29.75 20C29.75 20.41 29.41 20.75 29 20.75Z" fill="#05C18E"/>
</svg>
