<svg width="16" height="17" viewBox="0 0 16 17" fill="none" xmlns="http://www.w3.org/2000/svg">
<path d="M8.00001 15.6666C4.04668 15.6666 0.833344 12.4533 0.833344 8.49992C0.833344 4.54659 4.04668 1.33325 8.00001 1.33325C11.9533 1.33325 15.1667 4.54659 15.1667 8.49992C15.1667 12.4533 11.9533 15.6666 8.00001 15.6666ZM8.00001 2.33325C4.60001 2.33325 1.83334 5.09992 1.83334 8.49992C1.83334 11.8999 4.60001 14.6666 8.00001 14.6666C11.4 14.6666 14.1667 11.8999 14.1667 8.49992C14.1667 5.09992 11.4 2.33325 8.00001 2.33325Z" fill="#05C18E"/>
<path d="M10.4733 11.1199C10.3867 11.1199 10.3 11.0999 10.22 11.0466L8.15334 9.81326C7.64001 9.50659 7.26001 8.83326 7.26001 8.23992V5.50659C7.26001 5.23326 7.48668 5.00659 7.76001 5.00659C8.03334 5.00659 8.26001 5.23326 8.26001 5.50659V8.23992C8.26001 8.47992 8.46001 8.83326 8.66668 8.95326L10.7333 10.1866C10.9733 10.3266 11.0467 10.6333 10.9067 10.8733C10.8067 11.0333 10.64 11.1199 10.4733 11.1199Z" fill="#05C18E"/>
</svg>
