<svg width="21" height="22" viewBox="0 0 21 22" fill="none" xmlns="http://www.w3.org/2000/svg">
<path d="M10.4981 0.498047C4.70707 0.498047 -0.00390625 5.20917 -0.00390625 10.9999C-0.00390625 16.7909 4.70707 21.5022 10.4981 21.5022C16.2887 21.5022 21 16.7909 21 10.9999C21 5.20917 16.2887 0.498047 10.4981 0.498047ZM13.4662 7.12767C13.4662 7.1774 13.4464 7.22509 13.4113 7.26025C13.3761 7.29542 13.3284 7.31517 13.2787 7.31517L12.0849 7.31592C11.2972 7.31592 11.1532 7.62267 11.1532 8.2268V9.48005H13.2007C13.2545 9.48005 13.3059 9.5033 13.3413 9.5438C13.3768 9.5843 13.3933 9.63811 13.3867 9.69155L13.0951 11.9477C13.0893 11.9929 13.0672 12.0345 13.033 12.0646C12.9987 12.0947 12.9547 12.1112 12.9091 12.1112H11.1532V17.7135C11.1532 17.7633 11.1334 17.811 11.0983 17.8461C11.0631 17.8813 11.0154 17.901 10.9657 17.901H8.63616C8.58643 17.901 8.53874 17.8813 8.50358 17.8461C8.46842 17.811 8.44866 17.7633 8.44866 17.7135V12.1112H6.68708C6.63735 12.1112 6.58966 12.0915 6.5545 12.0563C6.51934 12.0212 6.49958 11.9735 6.49958 11.9237V9.66755C6.49958 9.61782 6.51934 9.57013 6.5545 9.53496C6.58966 9.4998 6.63735 9.48005 6.68708 9.48005H8.44866V8.00348C8.44866 6.04786 9.63217 4.83323 11.5377 4.83323C12.3569 4.83323 13.0809 4.89417 13.3033 4.92361C13.3483 4.92956 13.3897 4.95169 13.4197 4.98587C13.4496 5.02005 13.4662 5.06396 13.4662 5.10942V7.12767Z" fill="#05C18E"/>
</svg>
