<svg width="44" height="44" viewBox="0 0 44 44" fill="none" xmlns="http://www.w3.org/2000/svg">
<rect width="44" height="44" rx="8" fill="#05C18E"/>
<path d="M27.62 20.7501C27.19 20.7501 26.85 20.4001 26.85 19.9801C26.85 19.6101 26.48 18.8401 25.86 18.1701C25.25 17.5201 24.58 17.1401 24.02 17.1401C23.59 17.1401 23.25 16.7901 23.25 16.3701C23.25 15.9501 23.6 15.6001 24.02 15.6001C25.02 15.6001 26.07 16.1401 26.99 17.1101C27.85 18.0201 28.4 19.1501 28.4 19.9701C28.4 20.4001 28.05 20.7501 27.62 20.7501Z" fill="white"/>
<path d="M31.23 20.75C30.8 20.75 30.46 20.4 30.46 19.98C30.46 16.43 27.57 13.55 24.03 13.55C23.6 13.55 23.26 13.2 23.26 12.78C23.26 12.36 23.6 12 24.02 12C28.42 12 32 15.58 32 19.98C32 20.4 31.65 20.75 31.23 20.75Z" fill="white"/>
<path d="M21.05 24.95L19.2 26.8C18.81 27.19 18.19 27.19 17.79 26.81C17.68 26.7 17.57 26.6 17.46 26.49C16.43 25.45 15.5 24.36 14.67 23.22C13.85 22.08 13.19 20.94 12.71 19.81C12.24 18.67 12 17.58 12 16.54C12 15.86 12.12 15.21 12.36 14.61C12.6 14 12.98 13.44 13.51 12.94C14.15 12.31 14.85 12 15.59 12C15.87 12 16.15 12.06 16.4 12.18C16.66 12.3 16.89 12.48 17.07 12.74L19.39 16.01C19.57 16.26 19.7 16.49 19.79 16.71C19.88 16.92 19.93 17.13 19.93 17.32C19.93 17.56 19.86 17.8 19.72 18.03C19.59 18.26 19.4 18.5 19.16 18.74L18.4 19.53C18.29 19.64 18.24 19.77 18.24 19.93C18.24 20.01 18.25 20.08 18.27 20.16C18.3 20.24 18.33 20.3 18.35 20.36C18.53 20.69 18.84 21.12 19.28 21.64C19.73 22.16 20.21 22.69 20.73 23.22C20.83 23.32 20.94 23.42 21.04 23.52C21.44 23.91 21.45 24.55 21.05 24.95Z" fill="white"/>
<path d="M31.97 28.33C31.97 28.61 31.92 28.9 31.82 29.18C31.79 29.26 31.76 29.34 31.72 29.42C31.55 29.78 31.33 30.12 31.04 30.44C30.55 30.98 30.01 31.37 29.4 31.62C29.39 31.62 29.38 31.63 29.37 31.63C28.78 31.87 28.14 32 27.45 32C26.43 32 25.34 31.76 24.19 31.27C23.04 30.78 21.89 30.12 20.75 29.29C20.36 29 19.97 28.71 19.6 28.4L22.87 25.13C23.15 25.34 23.4 25.5 23.61 25.61C23.66 25.63 23.72 25.66 23.79 25.69C23.87 25.72 23.95 25.73 24.04 25.73C24.21 25.73 24.34 25.67 24.45 25.56L25.21 24.81C25.46 24.56 25.7 24.37 25.93 24.25C26.16 24.11 26.39 24.04 26.64 24.04C26.83 24.04 27.03 24.08 27.25 24.17C27.47 24.26 27.7 24.39 27.95 24.56L31.26 26.91C31.52 27.09 31.7 27.3 31.81 27.55C31.91 27.8 31.97 28.05 31.97 28.33Z" fill="white"/>
</svg>
