<svg width="72" height="78" viewBox="0 0 72 78" fill="none" xmlns="http://www.w3.org/2000/svg">
<g clip-path="url(#clip0_1_113)">
<path d="M49.0576 59.9612H35.2678C34.6576 59.9612 34.1695 59.4723 34.1695 58.8612C34.1695 58.2501 34.6576 57.7612 35.2678 57.7612H49.0576C49.6678 57.7612 50.1559 58.2501 50.1559 58.8612C50.1559 59.4723 49.6678 59.9612 49.0576 59.9612Z" fill="#00C194"/>
<path d="M12.0814 58.8611C11.4712 58.8611 10.9831 58.3722 10.9831 57.7611V55.0722C10.9831 54.4611 11.4712 53.9722 12.0814 53.9722C12.6915 53.9722 13.1797 54.4611 13.1797 55.0722V57.7611C13.1797 58.3722 12.6915 58.8611 12.0814 58.8611Z" fill="#00C194"/>
<path d="M12.0814 73.2834C11.4712 73.2834 10.9831 72.7945 10.9831 72.1834V57.7611C10.9831 57.15 11.4712 56.6611 12.0814 56.6611C12.6915 56.6611 13.1797 57.15 13.1797 57.7611V72.3056C13.1797 72.7945 12.6915 73.2834 12.0814 73.2834Z" fill="#00C194"/>
<path d="M12.0814 77.1943H1.34237C0.61017 77.1943 0 76.5832 0 75.8499V48.4721C0 47.7388 0.61017 47.1277 1.34237 47.1277H12.0814C12.6915 47.1277 13.1797 47.6166 13.1797 48.2277V53.361L23.9186 49.5721C26.1153 48.7166 28.5559 48.5943 30.8746 49.2055L44.7864 51.0388C48.6915 51.7721 49.1797 55.561 48.8136 57.5166V57.6388L64.0678 48.2277C64.8 47.7388 65.6542 47.4944 66.5085 47.2499C68.0949 46.8832 69.6814 47.4943 70.6576 48.5943C71.7559 49.8166 72.122 51.4055 71.6339 52.9944C71.2678 54.461 70.5356 55.6832 69.5593 56.9055C68.8271 57.761 67.9729 58.4943 67.2407 59.2277C66.9966 59.4721 66.7525 59.7166 66.5085 59.961C65.7763 60.5721 65.0441 61.1832 64.3119 61.6721L50.7661 71.4499C49.0576 72.6721 46.9831 73.4055 44.7864 73.4055H13.1797V76.2166C13.1797 76.7055 12.6915 77.1943 12.0814 77.1943ZM2.31864 74.9944H10.9831V72.1832C10.9831 71.5721 11.4712 71.0832 12.0814 71.0832H44.7864C46.4949 71.0832 48.0814 70.5943 49.4237 69.6166L62.9695 59.8388C63.5797 59.3499 64.3119 58.861 64.922 58.2499C65.1661 58.0055 65.4102 57.761 65.6542 57.5166C66.3864 56.9055 67.1186 56.1721 67.7288 55.4388C68.461 54.5832 69.0712 53.4832 69.3153 52.3832C69.5593 51.6499 69.3153 50.7944 68.8271 50.1832C68.339 49.5721 67.4847 49.3277 66.7525 49.4499C66.1424 49.5721 65.6542 49.8166 65.0441 50.061L50.0339 59.3499C49.1797 59.8388 48.2034 59.8388 47.3492 59.2277C46.617 58.6166 46.2509 57.761 46.3729 56.7832C46.3729 56.5388 46.861 53.6055 44.1763 52.9944L30.2644 51.161H30.1424C28.1898 50.6721 26.2373 50.7944 24.4068 51.5277L12.0814 55.9277C11.7153 56.0499 11.3492 56.0499 10.9831 55.8055C10.739 55.561 10.4949 55.1944 10.4949 54.8277V49.4499H2.31864V74.9944Z" fill="#00C194"/>
<path d="M6.58985 59.8389C4.51528 59.8389 2.92884 58.1278 2.92884 56.1723C2.92884 54.2167 4.63731 52.5056 6.58985 52.5056C8.66443 52.5056 10.2509 54.2167 10.2509 56.1723C10.2509 58.1278 8.66443 59.8389 6.58985 59.8389ZM6.58985 54.7056C5.85765 54.7056 5.12546 55.3167 5.12546 56.1723C5.12546 57.0278 5.73562 57.6389 6.58985 57.6389C7.32206 57.6389 8.05427 57.0278 8.05427 56.1723C8.05427 55.3167 7.32206 54.7056 6.58985 54.7056Z" fill="#00C194"/>
<path d="M18.183 18.161C17.8169 18.161 17.4508 17.9166 17.2068 17.6722C16.8407 17.1833 17.0847 16.4499 17.5729 16.0833L29.6542 8.62772C30.1424 8.26105 30.8746 8.50549 31.2407 8.99438C31.6068 9.48327 31.3627 10.2166 30.8746 10.5833L18.7932 18.0388C18.5492 18.161 18.4271 18.161 18.183 18.161Z" fill="#00C194"/>
<path d="M54.5492 18.161C54.3051 18.161 54.1831 18.161 53.939 18.0388L41.8576 10.5833C41.3695 10.3388 41.1254 9.60549 41.4915 8.99438C41.8576 8.50549 42.4678 8.26105 43.078 8.62772L55.1593 16.0833C55.6475 16.4499 55.8915 17.061 55.5254 17.6722C55.2814 18.0388 54.9153 18.161 54.5492 18.161Z" fill="#00C194"/>
<path d="M54.5491 45.2944H18.183C17.5729 45.2944 17.0847 44.8056 17.0847 44.1944V18.1611H11.5932C11.1051 18.1611 10.6169 17.7944 10.4949 17.3056C10.3729 16.8167 10.6169 16.3278 10.983 16.0833L35.7559 0.683333C36.122 0.438889 36.6102 0.438889 36.9763 0.683333L45.6407 6.06111V4.71667C45.6407 4.10556 46.1288 3.61667 46.739 3.61667H52.9627C53.5729 3.61667 54.061 4.10556 54.061 4.71667V11.4389L61.6271 16.0833C62.1152 16.3278 62.2373 16.8167 62.1153 17.3056C61.9932 17.7944 61.5051 18.1611 61.0169 18.1611H55.6475V44.1944C55.6475 44.8056 55.1593 45.2944 54.5491 45.2944ZM19.2814 43.0944H53.4508V17.0611C53.4508 16.45 53.939 15.9611 54.5491 15.9611H57.1119L52.4746 13.0278C52.1085 12.7833 51.9864 12.4167 51.9864 12.05V5.81667H47.9593V8.13889C47.9593 8.50556 47.7153 8.99444 47.3492 9.11667C46.983 9.36111 46.4949 9.36111 46.2508 9.11667L36.4881 3.00556L15.7424 15.8389H18.3051C18.9153 15.8389 19.4034 16.3278 19.4034 16.9389V43.0944H19.2814Z" fill="#00C194"/>
<path d="M41.8576 45.2944H30.8746C30.2644 45.2944 29.7763 44.8055 29.7763 44.1944V27.5722C29.7763 26.9611 30.2644 26.4722 30.8746 26.4722H41.8576C42.4678 26.4722 42.9559 26.9611 42.9559 27.5722V44.1944C42.9559 44.8055 42.4678 45.2944 41.8576 45.2944ZM32.0949 43.0944H40.7593V28.6722H32.0949V43.0944Z" fill="#00C194"/>
</g>
<defs>
<clipPath id="clip0_1_113">
<rect width="72" height="77" fill="white" transform="translate(0 0.5)"/>
</clipPath>
</defs>
</svg>
