<svg width="78" height="78" viewBox="0 0 78 78" fill="none" xmlns="http://www.w3.org/2000/svg">
<circle cx="39" cy="39" r="39" fill="#EAF7F4"/>
<path d="M23.3037 34.7436C22.9741 34.7436 22.6446 34.5239 22.4249 34.3043C22.0954 33.8649 22.3151 33.2058 22.7544 32.8763L33.6291 26.1758C34.0684 25.8462 34.7275 26.0659 35.057 26.5053C35.3866 26.9447 35.1669 27.6037 34.7275 27.9333L23.8529 34.6338C23.6332 34.7436 23.4135 34.7436 23.3037 34.7436Z" fill="#00C194"/>
<path d="M56.0374 34.7436C55.8177 34.7436 55.7079 34.7436 55.4882 34.6338L44.6136 27.9333C44.1742 27.6037 43.9545 27.0545 44.284 26.5053C44.6136 26.0659 45.1628 25.8462 45.712 26.1758L56.5866 32.8763C57.026 33.2058 57.2457 33.755 56.9162 34.3043C56.6965 34.6338 56.3669 34.7436 56.0374 34.7436Z" fill="#00C194"/>
<path d="M56.0373 59.129H23.3036C22.7544 59.129 22.315 58.6897 22.315 58.1404V34.7435H17.372C16.9327 34.7435 16.4933 34.414 16.3834 33.9746C16.2736 33.5352 16.4933 33.0959 16.8228 32.8762L39.1213 19.0357C39.4508 18.816 39.8902 18.816 40.2197 19.0357L48.0187 23.8689V22.6606C48.0187 22.1114 48.4581 21.672 49.0073 21.672H54.6094C55.1586 21.672 55.598 22.1114 55.598 22.6606V28.7021L62.4083 32.8762C62.8477 33.0959 62.9576 33.5352 62.8477 33.9746C62.7379 34.414 62.2985 34.7435 61.8591 34.7435H57.026V58.1404C57.026 58.6897 56.5866 59.129 56.0373 59.129ZM24.2922 57.1518H55.0487V33.7549C55.0487 33.2057 55.4881 32.7663 56.0373 32.7663H58.3441L54.17 30.1301C53.8405 29.9104 53.7306 29.5808 53.7306 29.2513V23.6492H50.1057V25.7363C50.1057 26.0658 49.8861 26.5052 49.5565 26.615C49.227 26.8347 48.7876 26.8347 48.5679 26.615L39.7803 21.1228L21.1068 32.6565H23.4135C23.9627 32.6565 24.4021 33.0959 24.4021 33.6451V57.1518H24.2922Z" fill="#00C194"/>
<path d="M44.6136 59.1291H34.7276C34.1783 59.1291 33.739 58.6897 33.739 58.1405V43.2016C33.739 42.6524 34.1783 42.213 34.7276 42.213H44.6136C45.1628 42.213 45.6022 42.6524 45.6022 43.2016V58.1405C45.6022 58.6897 45.1628 59.1291 44.6136 59.1291ZM35.7162 57.1519H43.5151V44.1902H35.7162V57.1519Z" fill="#00C194"/>
</svg>
