<svg width="25" height="24" viewBox="0 0 25 24" fill="none" xmlns="http://www.w3.org/2000/svg">
<path d="M8.42628 12C8.42628 9.79095 10.2166 7.99968 12.4256 7.99968C14.6347 7.99968 16.426 9.79095 16.426 12C16.426 14.209 14.6347 16.0003 12.4256 16.0003C10.2166 16.0003 8.42628 14.209 8.42628 12ZM6.26375 12C6.26375 15.4032 9.0224 18.1619 12.4256 18.1619C15.8289 18.1619 18.5875 15.4032 18.5875 12C18.5875 8.59677 15.8289 5.83813 12.4256 5.83813C9.0224 5.83813 6.26375 8.59677 6.26375 12ZM17.3914 5.59386C17.3914 6.38869 18.036 7.03425 18.8318 7.03425C19.6266 7.03425 20.2722 6.38869 20.2722 5.59386C20.2722 4.79903 19.6276 4.15444 18.8318 4.15444C18.036 4.15444 17.3914 4.79903 17.3914 5.59386ZM7.57716 21.7677C6.40721 21.7144 5.77135 21.5195 5.34873 21.3548C4.78847 21.1367 4.38912 20.8769 3.96844 20.4572C3.54873 20.0375 3.28799 19.6381 3.07086 19.0779C2.90608 18.6553 2.71125 18.0194 2.65794 16.8494C2.59978 15.5845 2.58815 15.2045 2.58815 12C2.58815 8.79548 2.60075 8.41648 2.65794 7.15057C2.71125 5.98061 2.90705 5.34572 3.07086 4.92213C3.28896 4.36187 3.54873 3.96252 3.96844 3.54184C4.38815 3.12213 4.7875 2.86139 5.34873 2.64426C5.77135 2.47948 6.40721 2.28465 7.57716 2.23134C8.84211 2.17318 9.22207 2.16155 12.4256 2.16155C15.6302 2.16155 16.0092 2.17415 17.2751 2.23134C18.445 2.28465 19.0799 2.48045 19.5035 2.64426C20.0638 2.86139 20.4631 3.12213 20.8838 3.54184C21.3035 3.96155 21.5633 4.36187 21.7814 4.92213C21.9461 5.34475 22.141 5.98061 22.1943 7.15057C22.2524 8.41648 22.2641 8.79548 22.2641 12C22.2641 15.2036 22.2524 15.5835 22.1943 16.8494C22.141 18.0194 21.9452 18.6553 21.7814 19.0779C21.5633 19.6381 21.3035 20.0375 20.8838 20.4572C20.4641 20.8769 20.0638 21.1367 19.5035 21.3548C19.0809 21.5195 18.445 21.7144 17.2751 21.7677C16.0101 21.8258 15.6302 21.8375 12.4256 21.8375C9.22207 21.8375 8.84211 21.8258 7.57716 21.7677ZM7.47829 0.0726979C6.20075 0.130856 5.32838 0.333441 4.56553 0.630048C3.77652 0.936349 3.1077 1.34733 2.43985 2.01422C1.77296 2.6811 1.36198 3.34992 1.05568 4.1399C0.75907 4.90275 0.556485 5.77512 0.498327 7.05267C0.439199 8.33215 0.425629 8.7412 0.425629 12C0.425629 15.2588 0.439199 15.6679 0.498327 16.9473C0.556485 18.2249 0.75907 19.0973 1.05568 19.8601C1.36198 20.6491 1.77199 21.3189 2.43985 21.9858C3.10673 22.6527 3.77555 23.0627 4.56553 23.37C5.32934 23.6666 6.20075 23.8691 7.47829 23.9273C8.75875 23.9855 9.16682 24 12.4256 24C15.6854 24 16.0935 23.9864 17.373 23.9273C18.6505 23.8691 19.5229 23.6666 20.2857 23.37C21.0747 23.0627 21.7436 22.6527 22.4114 21.9858C23.0783 21.3189 23.4883 20.6491 23.7956 19.8601C24.0922 19.0973 24.2957 18.2249 24.3529 16.9473C24.4111 15.6669 24.4247 15.2588 24.4247 12C24.4247 8.7412 24.4111 8.33215 24.3529 7.05267C24.2948 5.77512 24.0922 4.90275 23.7956 4.1399C23.4883 3.35089 23.0783 2.68207 22.4114 2.01422C21.7445 1.34733 21.0747 0.936349 20.2867 0.630048C19.5229 0.333441 18.6505 0.129887 17.3739 0.0726979C16.0944 0.0145396 15.6854 0 12.4266 0C9.16682 0 8.75875 0.0135703 7.47829 0.0726979Z" fill="#05C18E"/>
</svg>
