<svg width="78" height="78" viewBox="0 0 78 78" fill="none" xmlns="http://www.w3.org/2000/svg">
<circle cx="39" cy="39" r="39" fill="#EAF7F4"/>
<g clip-path="url(#clip0_1_181)">
<path d="M38.6464 60.0097C37.7623 60.0097 36.8783 59.5589 36.3478 58.7474L25.4741 42.3381C21.6727 36.5677 21.7611 29.0844 25.6509 23.4042C25.9161 23.0435 26.4465 22.9534 26.8001 23.2239C27.1538 23.4944 27.2422 24.0353 26.977 24.396C23.4408 29.5352 23.3524 36.2973 26.8001 41.4365L37.6739 57.8458C38.1159 58.4769 39.0884 58.4769 39.5304 57.8458L50.4042 41.4365C53.8519 36.2071 53.7635 29.445 50.1389 24.3058C49.8737 23.9452 49.9621 23.4042 50.3158 23.1337C50.6694 22.8632 51.1998 22.9534 51.465 23.314C55.4432 29.0844 55.62 36.5677 51.7302 42.4282L40.8565 58.7474C40.4144 59.5589 39.5304 60.0097 38.6464 60.0097Z" fill="#00C194"/>
<path d="M41.2101 35.7564H35.9942C35.5522 35.7564 35.1986 35.3957 35.1986 34.9449V27.8222C35.1986 27.3714 35.5522 27.0107 35.9942 27.0107H41.2101C41.6521 27.0107 42.0058 27.3714 42.0058 27.8222V34.9449C42.0942 35.3957 41.6521 35.7564 41.2101 35.7564ZM36.7899 34.0433H40.4145V28.6336H36.7899V34.0433Z" fill="#00C194"/>
<path d="M49.6969 21.5109H27.5074C27.1538 21.5109 26.8001 21.2404 26.7117 20.9699C26.6233 20.6093 26.7117 20.2486 26.977 20.0683L38.1159 11.5931C38.3811 11.4128 38.8232 11.4128 39.0884 11.5931L50.2273 20.0683C50.4926 20.2486 50.6694 20.6994 50.4926 20.9699C50.4042 21.2404 50.0505 21.5109 49.6969 21.5109ZM29.9827 19.7978H47.2216L38.5579 13.216L29.9827 19.7978Z" fill="#00C194"/>
<path d="M48.7245 38.8218H28.3915C27.9494 38.8218 27.5958 38.4612 27.5958 38.0104V34.9449C27.5958 34.4941 27.9494 34.1334 28.3915 34.1334H48.7245C49.1665 34.1334 49.5201 34.4941 49.5201 34.9449V38.0104C49.6085 38.371 49.2549 38.8218 48.7245 38.8218ZM29.2755 37.1087H47.9289V35.7563H29.2755V37.1087Z" fill="#00C194"/>
<path d="M47.1332 35.7563H30.1595C29.7175 35.7563 29.3639 35.3956 29.3639 34.9448V20.6092C29.3639 20.1584 29.7175 19.7977 30.1595 19.7977H47.1332C47.5752 19.7977 47.9288 20.1584 47.9288 20.6092V34.8547C47.9288 35.3956 47.5752 35.7563 47.1332 35.7563ZM30.9552 34.0432H46.2491V21.4206H30.9552V34.0432Z" fill="#00C194"/>
<path d="M38.6464 65.2391C31.574 65.2391 25.9161 60.9113 25.9161 55.5017C25.9161 54.7804 26.0045 54.1492 26.1814 53.5181C26.2698 53.0673 26.8002 52.7968 27.1538 52.9771C27.5958 53.0673 27.861 53.6083 27.6842 53.9689C27.5074 54.5099 27.5074 55.0508 27.5074 55.5017C27.5074 59.9196 32.4581 63.6162 38.558 63.6162C44.6579 63.6162 49.6085 60.0097 49.6085 55.5017C49.6085 54.9607 49.5201 54.4197 49.4317 53.9689C49.3433 53.5181 49.6085 53.0673 49.9622 52.9771C50.4042 52.887 50.8462 53.1575 50.9346 53.5181C51.1114 54.1492 51.1998 54.8705 51.1998 55.5017C51.3766 60.9113 45.6303 65.2391 38.6464 65.2391Z" fill="#00C194"/>
<path d="M38.6464 43.8709C34.6682 43.8709 31.0436 41.7972 29.0103 38.3711C28.7451 38.0104 28.9219 37.4694 29.2755 37.199C29.6291 36.9285 30.1595 37.1088 30.4247 37.4694C32.1928 40.4448 35.287 42.1578 38.6464 42.1578C42.0057 42.1578 45.0999 40.4448 46.868 37.4694C47.1332 37.1088 47.5752 36.9285 48.0172 37.199C48.3709 37.4694 48.5477 37.9202 48.2825 38.3711C46.1608 41.7972 42.5362 43.8709 38.6464 43.8709Z" fill="#00C194"/>
</g>
<defs>
<clipPath id="clip0_1_181">
<rect width="32.7097" height="54.0968" fill="white" transform="translate(22.6451 11.3226)"/>
</clipPath>
</defs>
</svg>
