 <svg
      width="54"
      height="42"
      viewBox="0 0 54 42"
      fill="none"
      xmlns="http://www.w3.org/2000/svg"
    >
      <g clip-path="url(#clip0_1_86)">
        <path
          d="M54 2C54 2.39782 53.842 2.77936 53.5607 3.06066C53.2794 3.34196 52.8978 3.5 52.5 3.5C52.1022 3.5 51.7206 3.34196 51.4393 3.06066C51.158 2.77936 51 2.39782 51 2C51 1.60218 51.158 1.22064 51.4393 0.93934C51.7206 0.658035 52.1022 0.5 52.5 0.5C52.8978 0.5 53.2794 0.658035 53.5607 0.93934C53.842 1.22064 54 1.60218 54 2Z"
          fill="white"
        />
        <path
          fill-rule="evenodd"
          clip-rule="evenodd"
          d="M13.75 41.294C6.156 41.294 0 35.138 0 27.544V1.5H5V27.544C5 29.8646 5.92187 32.0902 7.56282 33.7312C9.20376 35.3721 11.4294 36.294 13.75 36.294C18.643 36.294 22.5 32.523 22.5 27.75H27.5V35.25C27.5 35.5815 27.6317 35.8995 27.8661 36.1339C28.1005 36.3683 28.4185 36.5 28.75 36.5C29.0815 36.5 29.3995 36.3683 29.6339 36.1339C29.8683 35.8995 30 35.5815 30 35.25V26.375C29.0918 26.5604 28.1538 26.5414 27.2538 26.3196C26.3539 26.0977 25.5146 25.6784 24.7967 25.0921C24.0787 24.5058 23.5002 23.7672 23.103 22.9297C22.7058 22.0922 22.4998 21.1769 22.5 20.25V7.75C22.5 6.0924 23.1585 4.50269 24.3306 3.33058C25.5027 2.15848 27.0924 1.5 28.75 1.5C30.4076 1.5 31.9973 2.15848 33.1694 3.33058C34.3415 4.50269 35 6.0924 35 7.75V35.25C35 35.5815 35.1317 35.8995 35.3661 36.1339C35.6005 36.3683 35.9185 36.5 36.25 36.5C36.5815 36.5 36.8995 36.3683 37.1339 36.1339C37.3683 35.8995 37.5 35.5815 37.5 35.25V7.75C37.5 6.0924 38.1585 4.50269 39.3306 3.33058C40.5027 2.15848 42.0924 1.5 43.75 1.5C45.4076 1.5 46.9973 2.15848 48.1694 3.33058C49.3415 4.50269 50 6.0924 50 7.75V35.25C50 36.4107 49.6768 37.5485 49.0666 38.5358C48.4564 39.5232 47.5832 40.3211 46.5451 40.8402C45.5069 41.3593 44.3447 41.579 43.1887 41.4747C42.0327 41.3705 40.9286 40.9464 40 40.25C38.9191 41.0632 37.6026 41.502 36.25 41.5C34.8974 41.502 33.5809 41.0632 32.5 40.25C31.7478 40.8141 30.878 41.2012 29.9554 41.3826C29.0328 41.564 28.0812 41.5349 27.1714 41.2975C26.2616 41.0601 25.4171 40.6205 24.7008 40.0115C23.9844 39.4025 23.4147 38.6397 23.034 37.78C20.578 39.977 17.311 41.294 13.75 41.294ZM43.75 36.5C43.06 36.5 42.5 35.94 42.5 35.25V7.75C42.5 7.41848 42.6317 7.10054 42.8661 6.86612C43.1005 6.6317 43.4185 6.5 43.75 6.5C44.0815 6.5 44.3995 6.6317 44.6339 6.86612C44.8683 7.10054 45 7.41848 45 7.75V35.25C45 35.94 44.44 36.5 43.75 36.5ZM30 20.25C30 20.5815 29.8683 20.8995 29.6339 21.1339C29.3995 21.3683 29.0815 21.5 28.75 21.5C28.4185 21.5 28.1005 21.3683 27.8661 21.1339C27.6317 20.8995 27.5 20.5815 27.5 20.25V7.75C27.5 7.41848 27.6317 7.10054 27.8661 6.86612C28.1005 6.6317 28.4185 6.5 28.75 6.5C29.0815 6.5 29.3995 6.6317 29.6339 6.86612C29.8683 7.10054 30 7.41848 30 7.75V20.25Z"
          fill="white"
        />
        <path
          fill-rule="evenodd"
          clip-rule="evenodd"
          d="M7.5 27.75C7.5 29.4076 8.15848 30.9973 9.33058 32.1694C10.5027 33.3415 12.0924 34 13.75 34C15.4076 34 16.9973 33.3415 18.1694 32.1694C19.3415 30.9973 20 29.4076 20 27.75V7.75C20 6.0924 19.3415 4.50269 18.1694 3.33058C16.9973 2.15848 15.4076 1.5 13.75 1.5C12.0924 1.5 10.5027 2.15848 9.33058 3.33058C8.15848 4.50269 7.5 6.0924 7.5 7.75V27.75ZM13.75 29C13.06 29 12.5 28.44 12.5 27.75V7.75C12.5 7.41848 12.6317 7.10054 12.8661 6.86612C13.1005 6.6317 13.4185 6.5 13.75 6.5C14.0815 6.5 14.3995 6.6317 14.6339 6.86612C14.8683 7.10054 15 7.41848 15 7.75V27.75C15 28.44 14.44 29 13.75 29Z"
          fill="#05C18E"
        />
      </g>
      <defs>
        <clipPath id="clip0_1_86">
          <rect
            width="54"
            height="41"
            fill="white"
            transform="translate(0 0.5)"
          />
        </clipPath>
      </defs>
    </svg>