<svg width="27" height="27" viewBox="0 0 27 27" fill="none" xmlns="http://www.w3.org/2000/svg">
<circle cx="13.5" cy="13.5" r="13.5" fill="#DFEFEB"/>
<path d="M13.2875 16.2125L11.9 17.6C11.6075 17.8925 11.1425 17.8925 10.8425 17.6075C10.76 17.525 10.6775 17.45 10.595 17.3675C9.8225 16.5875 9.125 15.77 8.5025 14.915C7.8875 14.06 7.3925 13.205 7.0325 12.3575C6.68 11.5025 6.5 10.685 6.5 9.905C6.5 9.395 6.59 8.9075 6.77 8.4575C6.95 8 7.235 7.58 7.6325 7.205C8.1125 6.7325 8.6375 6.5 9.1925 6.5C9.4025 6.5 9.6125 6.545 9.8 6.635C9.995 6.725 10.1675 6.86 10.3025 7.055L12.0425 9.5075C12.1775 9.695 12.275 9.8675 12.3425 10.0325C12.41 10.19 12.4475 10.3475 12.4475 10.49C12.4475 10.67 12.395 10.85 12.29 11.0225C12.1925 11.195 12.05 11.375 11.87 11.555L11.3 12.1475C11.2175 12.23 11.18 12.3275 11.18 12.4475C11.18 12.5075 11.1875 12.56 11.2025 12.62C11.225 12.68 11.2475 12.725 11.2625 12.77C11.3975 13.0175 11.63 13.34 11.96 13.73C12.2975 14.12 12.6575 14.5175 13.0475 14.915C13.1225 14.99 13.205 15.065 13.28 15.14C13.58 15.4325 13.5875 15.9125 13.2875 16.2125Z" fill="#05C18E"/>
<path d="M21.4775 18.7475C21.4775 18.9575 21.44 19.175 21.365 19.385C21.3425 19.445 21.32 19.505 21.29 19.565C21.1625 19.835 20.9975 20.09 20.78 20.33C20.4125 20.735 20.0075 21.0275 19.55 21.215C19.5425 21.215 19.535 21.2225 19.5275 21.2225C19.085 21.4025 18.605 21.5 18.0875 21.5C17.3225 21.5 16.505 21.32 15.6425 20.9525C14.78 20.585 13.9175 20.09 13.0625 19.4675C12.77 19.25 12.4775 19.0325 12.2 18.8L14.6525 16.3475C14.8625 16.505 15.05 16.625 15.2075 16.7075C15.245 16.7225 15.29 16.745 15.3425 16.7675C15.4025 16.79 15.4625 16.7975 15.53 16.7975C15.6575 16.7975 15.755 16.7525 15.8375 16.67L16.4075 16.1075C16.595 15.92 16.775 15.7775 16.9475 15.6875C17.12 15.5825 17.2925 15.53 17.48 15.53C17.6225 15.53 17.7725 15.56 17.9375 15.6275C18.1025 15.695 18.275 15.7925 18.4625 15.92L20.945 17.6825C21.14 17.8175 21.275 17.975 21.3575 18.1625C21.4325 18.35 21.4775 18.5375 21.4775 18.7475Z" fill="#05C18E"/>
</svg>
