<svg width="16" height="16" viewBox="0 0 16 16" fill="none" xmlns="http://www.w3.org/2000/svg">
<path d="M6.37999 12.5467C6.25332 12.5467 6.12666 12.5001 6.02666 12.4001L1.97999 8.35341C1.78666 8.16008 1.78666 7.84008 1.97999 7.64675L6.02666 3.60008C6.21999 3.40674 6.53999 3.40674 6.73332 3.60008C6.92666 3.79341 6.92666 4.11341 6.73332 4.30674L3.03999 8.00008L6.73332 11.6934C6.92666 11.8867 6.92666 12.2067 6.73332 12.4001C6.63999 12.5001 6.50666 12.5467 6.37999 12.5467Z" fill="#05C18E"/>
<path d="M13.6667 8.5H2.44666C2.17332 8.5 1.94666 8.27333 1.94666 8C1.94666 7.72667 2.17332 7.5 2.44666 7.5H13.6667C13.94 7.5 14.1667 7.72667 14.1667 8C14.1667 8.27333 13.94 8.5 13.6667 8.5Z" fill="#05C18E"/>
</svg>
