<svg width="34" height="34" viewBox="0 0 34 34" fill="none" xmlns="http://www.w3.org/2000/svg">
<path d="M0 10C0 4.47715 4.47715 0 10 0H24C29.5228 0 34 4.47715 34 10V24C34 29.5228 29.5228 34 24 34H10C4.47715 34 0 29.5228 0 24V10Z" fill="#05C18E"/>
<path d="M22 16.375H10.75V12.3125C10.7512 11.8985 10.9163 11.5018 11.209 11.209C11.5018 10.9163 11.8985 10.7512 12.3125 10.75H21.6875C22.1015 10.7512 22.4982 10.9163 22.791 11.209C23.0837 11.5018 23.2488 11.8985 23.25 12.3125V16.375H22Z" stroke="white" stroke-width="1.5" stroke-linecap="round" stroke-linejoin="round"/>
<path d="M8.875 23.25V18.875C8.87696 18.2126 9.14098 17.5778 9.6094 17.1094C10.0778 16.641 10.7126 16.377 11.375 16.375H22.625C23.2874 16.377 23.9222 16.641 24.3906 17.1094C24.859 17.5778 25.123 18.2126 25.125 18.875V23.25" stroke="white" stroke-width="1.5" stroke-linecap="round" stroke-linejoin="round"/>
<path d="M8.875 23.25V22.9375C8.87572 22.6891 8.97473 22.451 9.15038 22.2754C9.32604 22.0997 9.56408 22.0007 9.8125 22H24.1875C24.4359 22.0007 24.674 22.0997 24.8496 22.2754C25.0253 22.451 25.1243 22.6891 25.125 22.9375V23.25" stroke="white" stroke-width="1.5" stroke-linecap="round" stroke-linejoin="round"/>
</svg>
