<svg width="78" height="79" viewBox="0 0 78 79" fill="none" xmlns="http://www.w3.org/2000/svg">
<circle cx="39" cy="39.5" r="39" fill="#EAF7F4"/>
<g clip-path="url(#clip0_1_167)">
<path d="M38.7721 62.6707C38.6962 62.6707 38.5443 62.6707 38.4683 62.5936C19.0988 54.0347 18.871 23.6545 18.871 23.3461C18.871 22.9605 19.1748 22.6521 19.4786 22.6521C30.6446 21.4184 38.2404 15.7125 38.3164 15.7125C38.5443 15.5582 38.924 15.5582 39.1519 15.7125C39.2279 15.7896 46.8237 21.4184 57.9897 22.6521C58.3694 22.7292 58.5973 23.0376 58.5973 23.3461C58.5973 23.6545 58.3694 54.0347 39 62.6707C39 62.6707 38.8481 62.6707 38.7721 62.6707ZM20.3142 23.9629C20.4661 28.2809 22.0612 53.495 38.7721 61.2057C55.559 53.495 57.0782 28.2809 57.2301 23.9629C47.4314 22.7292 40.5192 18.3341 38.7721 17.1004C37.0251 18.3341 30.1128 22.7292 20.3142 23.9629Z" fill="#00C194"/>
<path d="M38.7721 59.7406L38.4683 59.5864C24.9476 52.6468 22.2891 33.6013 21.6814 25.7364L21.6055 25.1195L22.2131 25.0424C29.885 23.7316 35.5818 20.6473 38.3164 18.9509L38.6962 18.7196L39.0759 18.9509C41.8105 20.6473 47.5074 23.7316 55.1792 25.0424L55.7868 25.1195L55.7109 25.7364C55.1792 33.6013 52.4447 52.5697 39 59.5093L38.7721 59.7406ZM23.2006 26.2761C23.7323 32.8302 26.3149 51.3359 38.7721 58.0443C51.2293 51.4131 53.8119 32.8302 54.3436 26.2761C47.1276 24.9653 41.6585 22.1123 38.7721 20.3389C35.8857 22.1123 30.4167 24.9653 23.2006 26.2761Z" fill="#00C194"/>
<path d="M45.0767 44.3192H32.4676C32.0878 44.3192 31.7839 44.0108 31.7839 43.6252V32.4447C31.7839 32.0592 32.0878 31.7507 32.4676 31.7507H45.0767C45.4565 31.7507 45.7603 32.0592 45.7603 32.4447V43.6252C45.7603 44.0108 45.4565 44.3192 45.0767 44.3192ZM33.1512 42.9313H44.3931V33.2158H33.1512V42.9313Z" fill="#00C194"/>
<path d="M46.8238 33.2158H30.7205C30.4167 33.2158 30.1888 33.0616 30.0369 32.7531C29.9609 32.4447 30.0369 32.1363 30.2648 31.9821L38.3164 25.1195C38.5443 24.8882 39 24.8882 39.2279 25.1195L47.2795 31.9821C47.5074 32.2134 47.5833 32.5218 47.5074 32.7531C47.3555 32.9845 47.1276 33.2158 46.8238 33.2158ZM32.6955 31.7508H44.8488L38.7721 26.5846L32.6955 31.7508Z" fill="#00C194"/>
<path d="M40.4432 44.3193H37.101C36.7213 44.3193 36.4174 44.0109 36.4174 43.6253V38.0736C36.4174 37.6881 36.7213 37.3796 37.101 37.3796H40.4432C40.823 37.3796 41.1269 37.6881 41.1269 38.0736V43.6253C41.1269 44.0109 40.823 44.3193 40.4432 44.3193ZM37.7847 42.9314H39.6836V38.7676H37.7847V42.9314Z" fill="#00C194"/>
<path d="M47.0516 44.3192H30.4926C30.1129 44.3192 29.809 44.0108 29.809 43.6252C29.809 43.2397 30.1129 42.9313 30.4926 42.9313H47.1276C47.5074 42.9313 47.8112 43.2397 47.8112 43.6252C47.8112 44.0108 47.5074 44.3192 47.0516 44.3192Z" fill="#00C194"/>
<path d="M44.7729 47.6349H32.7714C32.3916 47.6349 32.0878 47.3264 32.0878 46.9409C32.0878 46.5554 32.3916 46.2469 32.7714 46.2469H44.7729C45.1526 46.2469 45.4565 46.5554 45.4565 46.9409C45.5324 47.3264 45.1526 47.6349 44.7729 47.6349Z" fill="#00C194"/>
</g>
<defs>
<clipPath id="clip0_1_167">
<rect width="40.2581" height="47.8064" fill="white" transform="translate(18.871 15.5968)"/>
</clipPath>
</defs>
</svg>
