<svg width="20" height="20" viewBox="0 0 20 20" fill="none" xmlns="http://www.w3.org/2000/svg">
<path d="M4.78335 13.3334C4.87501 12.925 4.70835 12.3417 4.41668 12.05L2.39168 10.025C1.75835 9.39169 1.50835 8.71669 1.69168 8.13335C1.88335 7.55002 2.47502 7.15002 3.35835 7.00002L5.95835 6.56669C6.33335 6.50002 6.79168 6.16669 6.96668 5.82502L8.40001 2.95002C8.81668 2.12502 9.38335 1.66669 10 1.66669C10.6167 1.66669 11.1833 2.12502 11.6 2.95002L13.0333 5.82502C13.1417 6.04169 13.3667 6.25002 13.6083 6.39169L4.63335 15.3667C4.51668 15.4834 4.31668 15.375 4.35001 15.2084L4.78335 13.3334Z" fill="#FCC236"/>
<path d="M15.5833 12.05C15.2833 12.35 15.1167 12.925 15.2167 13.3333L15.7917 15.8417C16.0333 16.8834 15.8833 17.6667 15.3667 18.0417C15.1583 18.1917 14.9083 18.2667 14.6167 18.2667C14.1917 18.2667 13.6917 18.1083 13.1417 17.7833L10.7 16.3334C10.3167 16.1083 9.68334 16.1083 9.30001 16.3334L6.85834 17.7833C5.93334 18.325 5.14168 18.4167 4.63334 18.0417C4.44168 17.9 4.30001 17.7084 4.20834 17.4584L14.3417 7.32502C14.725 6.94168 15.2667 6.76668 15.7917 6.85835L16.6333 7.00002C17.5167 7.15002 18.1083 7.55002 18.3 8.13335C18.4833 8.71668 18.2333 9.39168 17.6 10.025L15.5833 12.05Z" fill="#FCC236"/>
</svg>
