<svg width="25" height="24" viewBox="0 0 25 24" fill="none" xmlns="http://www.w3.org/2000/svg">
<path d="M22.4046 11.41C22.0646 5.60995 16.7946 1.13996 10.7246 2.13996C6.54463 2.82996 3.19464 6.21994 2.54464 10.3999C2.16464 12.8199 2.66466 15.1099 3.75466 16.9999L2.86465 20.3099C2.66465 21.0599 3.35463 21.7399 4.09463 21.5299L7.35464 20.63C8.83464 21.5 10.5646 21.9999 12.4146 21.9999C18.0546 21.9999 22.7346 17.03 22.4046 11.41ZM17.3046 15.7199C17.2146 15.8999 17.1046 16.07 16.9646 16.23C16.7146 16.5 16.4446 16.7 16.1446 16.82C15.8446 16.95 15.5146 17.01 15.1646 17.01C14.6546 17.01 14.1046 16.89 13.5346 16.64C12.9546 16.39 12.3847 16.0599 11.8147 15.6499C11.2347 15.2299 10.6946 14.7599 10.1746 14.2499C9.65464 13.7299 9.19462 13.1799 8.77462 12.6099C8.36462 12.0399 8.03464 11.4699 7.79464 10.8999C7.55464 10.3299 7.43465 9.77996 7.43465 9.25996C7.43465 8.91996 7.49465 8.58996 7.61465 8.28996C7.73465 7.97996 7.92466 7.69996 8.19466 7.44996C8.51466 7.12996 8.86464 6.97996 9.23464 6.97996C9.37464 6.97996 9.51462 7.00995 9.64462 7.06995C9.77462 7.12995 9.89464 7.21995 9.98464 7.34995L11.1446 8.98994C11.2346 9.11994 11.3046 9.22994 11.3446 9.33994C11.3946 9.44994 11.4146 9.54994 11.4146 9.64994C11.4146 9.76994 11.3746 9.88996 11.3046 10.01C11.2346 10.13 11.1446 10.2499 11.0246 10.3699L10.6446 10.7699C10.5846 10.8299 10.5647 10.8899 10.5647 10.9699C10.5647 11.0099 10.5746 11.0499 10.5846 11.0899C10.6046 11.1299 10.6147 11.16 10.6247 11.1899C10.7147 11.36 10.8746 11.5699 11.0946 11.8299C11.3246 12.0899 11.5647 12.3599 11.8247 12.6199C12.0947 12.8899 12.3547 13.1299 12.6247 13.3599C12.8847 13.5799 13.1046 13.73 13.2746 13.82C13.3046 13.83 13.3346 13.8499 13.3646 13.8599C13.4046 13.8799 13.4447 13.88 13.4947 13.88C13.5847 13.88 13.6447 13.85 13.7047 13.79L14.0846 13.41C14.2146 13.28 14.3347 13.19 14.4447 13.13C14.5647 13.06 14.6746 13.0199 14.8046 13.0199C14.9046 13.0199 15.0046 13.0399 15.1146 13.0899C15.2246 13.1399 15.3446 13.2 15.4646 13.29L17.1247 14.4699C17.2547 14.5599 17.3446 14.67 17.4046 14.79C17.4546 14.92 17.4846 15.0399 17.4846 15.1799C17.4246 15.3499 17.3846 15.5399 17.3046 15.7199Z" fill="#05C18E"/>
</svg>
