<svg width="21" height="22" viewBox="0 0 21 22" fill="none" xmlns="http://www.w3.org/2000/svg">
<path d="M14.139 19.0894C13.764 16.9376 13.139 14.7144 12.264 12.4197H12.2372L12.2104 12.4331C12.0675 12.4867 11.8756 12.5603 11.6345 12.6541C11.3934 12.7478 10.9425 12.9666 10.2818 13.3103C9.62111 13.6541 9.0095 14.0202 8.447 14.4086C7.8845 14.7969 7.29968 15.3081 6.69254 15.942C6.0854 16.576 5.62558 17.2367 5.31308 17.9242L5.11218 17.7769C6.75504 19.1161 8.62111 19.7858 10.7104 19.7858C11.889 19.7858 13.0318 19.5536 14.139 19.0894ZM11.6613 10.9599C11.4738 10.5224 11.2372 10.0269 10.9515 9.47328C8.17468 10.3036 5.17022 10.7188 1.93808 10.7188C1.92915 10.7813 1.92468 10.8751 1.92468 11.0001C1.92468 12.1072 2.12111 13.163 2.51397 14.1675C2.90683 15.1719 3.4604 16.0715 4.17468 16.8661C4.62111 16.0715 5.17245 15.3282 5.8287 14.6362C6.48495 13.9443 7.12111 13.3885 7.73718 12.9688C8.35325 12.5492 8.93584 12.1876 9.48495 11.884C10.0341 11.5804 10.4783 11.3661 10.8175 11.2411L11.3131 11.067C11.3488 11.0581 11.4068 11.0425 11.4872 11.0202C11.5675 10.9978 11.6256 10.9777 11.6613 10.9599ZM10.2283 8.12061C9.15683 6.21882 8.06754 4.53132 6.9604 3.05811C5.72825 3.63846 4.68361 4.46882 3.82647 5.54918C2.96933 6.62953 2.3979 7.84382 2.11218 9.19203C4.80861 9.19203 7.51397 8.83489 10.2283 8.12061ZM19.389 12.3929C17.514 11.8572 15.6881 11.7277 13.9113 12.0045C14.6881 14.1385 15.2595 16.2322 15.6256 18.2858C16.6166 17.6161 17.4425 16.7702 18.1033 15.7478C18.764 14.7255 19.1925 13.6072 19.389 12.3929ZM16.5095 4.41078C14.8577 2.9465 12.9247 2.21436 10.7104 2.21436C10.0318 2.21436 9.33986 2.29918 8.6345 2.46882C9.80415 3.98668 10.9024 5.69203 11.9291 7.58489C12.5452 7.35275 13.1256 7.08266 13.6702 6.77462C14.2149 6.46659 14.6457 6.19203 14.9626 5.95096C15.2796 5.70989 15.572 5.45543 15.8399 5.18757C16.1077 4.91971 16.2751 4.73891 16.3421 4.64516L16.5095 4.41078ZM19.4961 10.9063C19.4693 8.83489 18.8041 7.00453 17.5006 5.41525L17.4872 5.42864C17.4068 5.53578 17.322 5.64516 17.2327 5.75677C17.1434 5.86837 16.9492 6.06703 16.6501 6.35275C16.351 6.63846 16.0341 6.90855 15.6992 7.16302C15.3644 7.41748 14.918 7.70766 14.36 8.03355C13.8019 8.35944 13.2149 8.64739 12.5988 8.89739C12.822 9.37061 13.0184 9.79471 13.1881 10.1697C13.2059 10.2233 13.235 10.3014 13.2751 10.4041C13.3153 10.5068 13.3488 10.5804 13.3756 10.6251C13.697 10.5804 14.0296 10.5492 14.3733 10.5313C14.7171 10.5135 15.0452 10.5045 15.3577 10.5045C15.6702 10.5045 15.9783 10.5112 16.2818 10.5246C16.5854 10.538 16.8711 10.5559 17.139 10.5782C17.4068 10.6005 17.6591 10.6251 17.8957 10.6519C18.1323 10.6786 18.3466 10.7077 18.5385 10.7389C18.7305 10.7702 18.8934 10.7969 19.0274 10.8193C19.1613 10.8416 19.2729 10.8617 19.3622 10.8795L19.4961 10.9063ZM20.9961 11.0001C20.9961 12.8661 20.5363 14.5871 19.6166 16.163C18.697 17.7389 17.4492 18.9867 15.8733 19.9063C14.2975 20.826 12.5765 21.2858 10.7104 21.2858C8.84433 21.2858 7.12334 20.826 5.54745 19.9063C3.97156 18.9867 2.72379 17.7389 1.80415 16.163C0.884504 14.5871 0.424683 12.8661 0.424683 11.0001C0.424683 9.134 0.884504 7.41302 1.80415 5.83712C2.72379 4.26123 3.97156 3.01346 5.54745 2.09382C7.12334 1.17418 8.84433 0.714355 10.7104 0.714355C12.5765 0.714355 14.2975 1.17418 15.8733 2.09382C17.4492 3.01346 18.697 4.26123 19.6166 5.83712C20.5363 7.41302 20.9961 9.134 20.9961 11.0001Z" fill="#05C18E"/>
</svg>
