<svg width="73" height="72" viewBox="0 0 73 72" fill="none" xmlns="http://www.w3.org/2000/svg">
<g clip-path="url(#clip0_1_101)">
<path d="M29.0559 57.2339C21.3678 57.2339 14.2898 54.3051 8.79831 48.8136C3.42881 43.4441 0.5 36.2441 0.5 28.5559C0.5 20.8678 3.42881 13.7898 8.92034 8.42034C14.2898 2.92881 21.4898 0 29.0559 0C36.7441 0 43.9441 2.92881 49.3136 8.42034C54.6831 13.7898 57.7339 20.9898 57.7339 28.678C57.7339 36.3661 54.6831 43.4441 49.3136 48.8136C43.9441 54.1831 36.7441 57.2339 29.0559 57.2339ZM29.0559 2.31864C21.978 2.31864 15.3881 5.00339 10.3847 10.0068C5.38136 15.0102 2.69661 21.6 2.69661 28.678C2.69661 35.7559 5.38136 42.3458 10.3847 47.3492C15.3881 52.3525 21.978 55.0373 29.0559 55.0373C36.1339 55.0373 42.7237 52.3525 47.7271 47.3492C52.7305 42.3458 55.4153 35.7559 55.4153 28.678C55.4153 21.6 52.7305 15.0102 47.7271 10.0068C42.7237 5.00339 36.1339 2.31864 29.0559 2.31864Z" fill="#00C194"/>
<path d="M29.0559 50.7661C23.1983 50.7661 17.5847 48.4475 13.4356 44.2983C9.28642 40.1492 6.96777 34.5356 6.96777 28.678C6.96777 22.8204 9.28642 17.2068 13.4356 13.0577C17.5847 8.90849 23.1983 6.58984 29.0559 6.58984C34.9135 6.58984 40.5271 8.90849 44.6763 13.0577C48.8254 17.2068 51.1441 22.8204 51.1441 28.678C51.1441 34.5356 48.8254 40.1492 44.6763 44.2983C40.5271 48.4475 35.0356 50.7661 29.0559 50.7661ZM29.0559 8.78647C23.8085 8.78647 18.8051 10.861 15.022 14.6441C11.239 18.4271 9.16438 23.4305 9.16438 28.678C9.16438 33.9254 11.239 38.9288 15.022 42.7119C18.8051 46.4949 23.8085 48.5695 29.0559 48.5695C34.3034 48.5695 39.3068 46.4949 43.0898 42.7119C46.8729 38.9288 48.9474 33.9254 48.9474 28.678C48.9474 23.4305 46.8729 18.4271 43.0898 14.6441C39.4288 10.861 34.4254 8.78647 29.0559 8.78647Z" fill="#00C194"/>
<path d="M65.178 71.1459C63.4695 71.1459 61.8831 70.5357 60.5407 69.1933L42.4797 51.2543L43.578 50.5221C45.0424 49.5459 46.3848 48.4476 47.6051 47.2272C48.8254 46.0069 49.9237 44.6645 50.9 43.2001L51.6322 42.1018L69.5712 60.0408C72.1339 62.6035 72.1339 66.7527 69.5712 69.3154C68.4729 70.5357 66.7644 71.1459 65.178 71.1459ZM46.1407 51.6205L62.1271 67.6069C63.8356 69.3154 66.5204 69.3154 68.1068 67.6069C69.8153 65.8984 69.8153 63.2137 68.1068 61.6272L52.1204 45.6408C51.2661 46.7391 50.2898 47.8374 49.3136 48.9357C48.3373 49.7899 47.239 50.7662 46.1407 51.6205Z" fill="#00C194"/>
<path d="M39.4288 41.2476H18.8051C18.1949 41.2476 17.7068 40.7594 17.7068 40.1493V22.6984C17.7068 22.0882 18.1949 21.6001 18.8051 21.6001C19.4153 21.6001 19.9034 22.0882 19.9034 22.6984V39.0509H38.3305V22.6984C38.3305 22.0882 38.8186 21.6001 39.4288 21.6001C40.039 21.6001 40.5271 22.0882 40.5271 22.6984V40.1493C40.6492 40.7594 40.039 41.2476 39.4288 41.2476Z" fill="#00C194"/>
<path d="M16.4864 24.895C16.2424 24.895 16.1203 24.895 15.8763 24.7729C15.5102 24.5289 15.3881 24.1628 15.3881 23.7967V19.5255C15.3881 19.0373 15.6322 18.6712 15.9983 18.5492L28.5678 12.5696C28.9339 12.4475 29.178 12.4475 29.5441 12.5696L42.1135 18.4272C42.4796 18.6712 42.7237 19.0373 42.7237 19.4035V23.6746C42.7237 24.0407 42.4796 24.4068 42.2356 24.6509C41.8695 24.895 41.5034 24.895 41.1373 24.7729L29.0559 19.1594L16.9746 24.7729C16.8525 24.895 16.7305 24.895 16.4864 24.895ZM17.7068 20.2577V21.9662L28.6898 16.8407C28.9339 16.7187 29.3 16.7187 29.6661 16.8407L40.6491 21.9662V20.2577L29.178 14.8882L17.7068 20.2577Z" fill="#00C194"/>
<path d="M31.9847 41.2476H26.1271C25.5169 41.2476 25.0288 40.7594 25.0288 40.1493V30.8747C25.0288 30.2645 25.5169 29.7764 26.1271 29.7764H31.9847C32.5949 29.7764 33.083 30.2645 33.083 30.8747V40.1493C33.2051 40.7594 32.5949 41.2476 31.9847 41.2476ZM27.3475 39.0509H30.8864V32.095H27.3475V39.0509Z" fill="#00C194"/>
</g>
<defs>
<clipPath id="clip0_1_101">
<rect width="72" height="72" fill="white" transform="translate(0.5)"/>
</clipPath>
</defs>
</svg>
